# xmcd CD database file
#
# Track frame offsets:
#	151
#	11529
#	26582
#	39981
#	53684
#	67160
#	80857
#	94710
#	109763
#	124140
#
# Disc length: 1813 seconds
#
# Revision: 0
# Processed by: cddbd v1.5.2PL0 Copyright (c) Steve Scherf et al.
# Submitted via: CDex 1.70beta2
#
DISCID=7f07130a
DTITLE=Mary Rowan - Forever and a Day
DYEAR=2002
DGENRE=Country
TTITLE0=I'm Walking On Air
TTITLE1=Things Could Be Better But They're Not
TTITLE2=You're Out Of Control
TTITLE3=Forever And A Day
TTITLE4=Lonesome Heart
TTITLE5=Lovin' Lyin' Loneliness and Leavin'
TTITLE6=When The Sun Goes Down
TTITLE7=I Don't Believe I Love You Anymore
TTITLE8=Between The Rainbow and the Rain
TTITLE9=After Dark
EXTD=YEAR: 2002
EXTT0=
EXTT1=
EXTT2=
EXTT3=
EXTT4=
EXTT5=
EXTT6=
EXTT7=
EXTT8=
EXTT9=
PLAYORDER=
